<svg xmlns="http://www.w3.org/2000/svg">
    <symbol id="angle-down" viewBox="0 0 1792 1792">
        <path d="M1395 736q0 13-10 23l-466 466q-10 10-23 10t-23-10l-466-466q-10-10-10-23t10-23l50-50q10-10 23-10t23 10l393 393 393-393q10-10 23-10t23 10l50 50q10 10 10 23z" />
    </symbol>
    <symbol id="angle-right" viewBox="0 0 1792 1792">
        <path d="M1395 736q0 13-10 23l-466 466q-10 10-23 10t-23-10l-466-466q-10-10-10-23t10-23l50-50q10-10 23-10t23 10l393 393 393-393q10-10 23-10t23 10l50 50q10 10 10 23z" transform="rotate(270 896 896)"/>
    </symbol>
    <symbol id="heart" viewBox="0 0 20 20">
        <path
        strokeWidth="1.5"
        strokeMiterlimit="10"
        d="M10 18.8l-7.9-7.9C.3 9.1.3 6.2 2.1 4.4s4.7-1.8 6.5 0L10 5.7l1.3-1.3c1.8-1.8 4.7-1.8 6.5 0 1.8 1.8 1.8 4.7 0 6.5L10 18.8z"
        />
    </symbol>
</svg>